<svg width="390" height="328" viewBox="0 0 390 328" fill="none" xmlns="http://www.w3.org/2000/svg">
<g clip-path="url(#clip0_1_37)">
<line y1="61.5" x2="390" y2="61.5" stroke="white" stroke-opacity="0.17"/>
<line y1="125.5" x2="390" y2="125.5" stroke="white" stroke-opacity="0.17"/>
<line y1="189.5" x2="390" y2="189.5" stroke="white" stroke-opacity="0.17"/>
<line y1="253.5" x2="390" y2="253.5" stroke="white" stroke-opacity="0.17"/>
<line y1="317.5" x2="390" y2="317.5" stroke="white" stroke-opacity="0.17"/>
<line x1="106.5" y1="-11" x2="106.5" y2="353" stroke="white" stroke-opacity="0.17"/>
<line x1="217.5" y1="-11" x2="217.5" y2="353" stroke="white" stroke-opacity="0.17"/>
<line x1="328.5" y1="-11" x2="328.5" y2="353" stroke="white" stroke-opacity="0.17"/>
<rect x="14" y="22" width="76" height="11" rx="5.5" fill="#4A6DA7"/>
<rect x="14" y="36" width="56" height="11" rx="5.5" fill="#4A6DA7"/>
<rect x="124" y="22" width="76" height="23" rx="11.5" fill="url(#paint0_linear_1_37)" fill-opacity="0.4"/>
<rect x="234" y="22" width="76" height="23" rx="11.5" fill="url(#paint1_linear_1_37)" fill-opacity="0.4"/>
<rect x="344" y="22" width="76" height="23" rx="11.5" fill="url(#paint2_linear_1_37)" fill-opacity="0.4"/>
<rect x="14" y="80" width="76" height="27" rx="13.5" fill="url(#paint3_linear_1_37)" fill-opacity="0.2"/>
<rect x="14" y="144" width="76" height="27" rx="13.5" fill="url(#paint4_linear_1_37)" fill-opacity="0.2"/>
<rect x="14" y="208" width="76" height="27" rx="13.5" fill="url(#paint5_linear_1_37)" fill-opacity="0.2"/>
<rect x="14" y="272" width="76" height="27" rx="13.5" fill="#4A6DA7"/>
<path d="M144.051 104C144.051 102.229 144.307 100.683 144.819 99.36C145.352 98.0373 146.238 96.8107 147.475 95.68C148.712 94.528 150.408 93.376 152.563 92.224C153.672 91.648 154.526 91.136 155.123 90.688C155.72 90.24 156.158 89.7813 156.435 89.312C156.712 88.8213 156.851 88.224 156.851 87.52C156.851 86.432 156.499 85.568 155.795 84.928C155.091 84.2667 154.078 83.936 152.755 83.936C151.326 83.936 150.184 84.32 149.331 85.088C148.478 85.856 147.944 86.976 147.731 88.448L144.147 88.224C144.403 85.8987 145.278 84.0747 146.771 82.752C148.264 81.4293 150.259 80.768 152.755 80.768C154.355 80.768 155.731 81.056 156.883 81.632C158.035 82.1867 158.91 82.9653 159.507 83.968C160.126 84.9707 160.435 86.1333 160.435 87.456C160.435 88.6293 160.243 89.6213 159.859 90.432C159.475 91.2427 158.846 92.0107 157.971 92.736C157.118 93.44 155.891 94.208 154.291 95.04C152.392 96.0427 150.92 97.056 149.875 98.08C148.851 99.104 148.307 100.021 148.243 100.832H160.435V104H144.051ZM170.935 104.512C169.079 104.512 167.458 104.032 166.071 103.072C164.684 102.112 163.607 100.747 162.839 98.976C162.092 97.184 161.719 95.0827 161.719 92.672C161.719 90.2613 162.092 88.16 162.839 86.368C163.607 84.576 164.684 83.2 166.071 82.24C167.458 81.2587 169.079 80.768 170.935 80.768C172.834 80.768 174.476 81.248 175.863 82.208C177.25 83.168 178.316 84.544 179.063 86.336C179.81 88.128 180.183 90.24 180.183 92.672C180.183 95.0827 179.81 97.184 179.063 98.976C178.316 100.747 177.25 102.112 175.863 103.072C174.476 104.032 172.834 104.512 170.935 104.512ZM170.935 101.344C172.151 101.344 173.175 101.013 174.007 100.352C174.86 99.6907 175.5 98.7093 175.927 97.408C176.375 96.1067 176.599 94.528 176.599 92.672C176.599 90.7947 176.375 89.2053 175.927 87.904C175.5 86.6027 174.86 85.6213 174.007 84.96C173.175 84.2773 172.151 83.936 170.935 83.936C169.74 83.936 168.727 84.2773 167.895 84.96C167.063 85.6213 166.423 86.6027 165.975 87.904C165.527 89.2053 165.303 90.7947 165.303 92.672C165.303 94.528 165.527 96.1067 165.975 97.408C166.423 98.7093 167.063 99.6907 167.895 100.352C168.727 101.013 169.74 101.344 170.935 101.344Z" fill="url(#paint6_linear_1_37)"/>
<path d="M262.43 87.808H257.63V85.024H259.582C260.457 85.024 261.15 84.9173 261.662 84.704C262.195 84.4693 262.579 84.0853 262.814 83.552C263.049 82.9973 263.166 82.24 263.166 81.28H265.886V104H262.43V87.808ZM269.319 104C269.319 102.229 269.575 100.683 270.087 99.36C270.62 98.0373 271.505 96.8107 272.743 95.68C273.98 94.528 275.676 93.376 277.831 92.224C278.94 91.648 279.793 91.136 280.391 90.688C280.988 90.24 281.425 89.7813 281.703 89.312C281.98 88.8213 282.119 88.224 282.119 87.52C282.119 86.432 281.767 85.568 281.063 84.928C280.359 84.2667 279.345 83.936 278.023 83.936C276.593 83.936 275.452 84.32 274.599 85.088C273.745 85.856 273.212 86.976 272.999 88.448L269.415 88.224C269.671 85.8987 270.545 84.0747 272.039 82.752C273.532 81.4293 275.527 80.768 278.023 80.768C279.623 80.768 280.999 81.056 282.151 81.632C283.303 82.1867 284.177 82.9653 284.775 83.968C285.393 84.9707 285.703 86.1333 285.703 87.456C285.703 88.6293 285.511 89.6213 285.127 90.432C284.743 91.2427 284.113 92.0107 283.239 92.736C282.385 93.44 281.159 94.208 279.559 95.04C277.66 96.0427 276.188 97.056 275.143 98.08C274.119 99.104 273.575 100.021 273.511 100.832H285.703V104H269.319Z" fill="url(#paint7_linear_1_37)"/>
<path d="M152.117 150.808H147.317V148.024H149.269C150.144 148.024 150.837 147.917 151.349 147.704C151.883 147.469 152.267 147.085 152.501 146.552C152.736 145.997 152.853 145.24 152.853 144.28H155.573V167H152.117V150.808ZM170.142 162.264H158.686V159.32L169.694 144.28H173.598V159.128H176.35V162.264H173.598V167H170.142V162.264ZM170.142 159.128V149.08L162.622 159.128H170.142Z" fill="url(#paint8_linear_1_37)"/>
<path d="M262.933 167.512C261.077 167.512 259.456 167.032 258.069 166.072C256.682 165.112 255.605 163.747 254.837 161.976C254.09 160.184 253.717 158.083 253.717 155.672C253.717 153.261 254.09 151.16 254.837 149.368C255.605 147.576 256.682 146.2 258.069 145.24C259.456 144.259 261.077 143.768 262.933 143.768C264.832 143.768 266.474 144.248 267.861 145.208C269.248 146.168 270.314 147.544 271.061 149.336C271.808 151.128 272.181 153.24 272.181 155.672C272.181 158.083 271.808 160.184 271.061 161.976C270.314 163.747 269.248 165.112 267.861 166.072C266.474 167.032 264.832 167.512 262.933 167.512ZM262.933 164.344C264.149 164.344 265.173 164.013 266.005 163.352C266.858 162.691 267.498 161.709 267.925 160.408C268.373 159.107 268.597 157.528 268.597 155.672C268.597 153.795 268.373 152.205 267.925 150.904C267.498 149.603 266.858 148.621 266.005 147.96C265.173 147.277 264.149 146.936 262.933 146.936C261.738 146.936 260.725 147.277 259.893 147.96C259.061 148.621 258.421 149.603 257.973 150.904C257.525 152.205 257.301 153.795 257.301 155.672C257.301 157.528 257.525 159.107 257.973 160.408C258.421 161.709 259.061 162.691 259.893 163.352C260.725 164.013 261.738 164.344 262.933 164.344ZM281.931 167.512C280.182 167.512 278.646 167.256 277.323 166.744C276 166.211 274.976 165.443 274.251 164.44C273.526 163.437 273.163 162.221 273.163 160.792C273.163 159.149 273.654 157.784 274.635 156.696C275.616 155.587 276.971 154.851 278.699 154.488L278.763 155.128C277.355 154.808 276.246 154.221 275.435 153.368C274.646 152.493 274.251 151.373 274.251 150.008C274.251 148.792 274.56 147.715 275.179 146.776C275.798 145.837 276.683 145.101 277.835 144.568C279.008 144.035 280.374 143.768 281.931 143.768C283.488 143.768 284.843 144.035 285.995 144.568C287.147 145.101 288.032 145.837 288.651 146.776C289.27 147.715 289.579 148.792 289.579 150.008C289.579 151.373 289.184 152.483 288.395 153.336C287.606 154.189 286.496 154.787 285.067 155.128L285.131 154.488C286.859 154.851 288.214 155.587 289.195 156.696C290.198 157.784 290.699 159.149 290.699 160.792C290.699 162.221 290.326 163.437 289.579 164.44C288.854 165.443 287.83 166.211 286.507 166.744C285.184 167.256 283.659 167.512 281.931 167.512ZM281.931 164.344C283.531 164.344 284.79 164.013 285.707 163.352C286.624 162.691 287.083 161.72 287.083 160.44C287.083 159.16 286.646 158.157 285.771 157.432C284.896 156.707 283.616 156.344 281.931 156.344C280.224 156.344 278.934 156.707 278.059 157.432C277.184 158.157 276.747 159.16 276.747 160.44C276.747 161.72 277.206 162.691 278.123 163.352C279.04 164.013 280.31 164.344 281.931 164.344ZM281.931 153.496C283.254 153.496 284.267 153.219 284.971 152.664C285.675 152.109 286.027 151.277 286.027 150.168C286.027 149.165 285.675 148.376 284.971 147.8C284.267 147.203 283.254 146.904 281.931 146.904C280.587 146.904 279.563 147.203 278.859 147.8C278.155 148.376 277.803 149.165 277.803 150.168C277.803 151.277 278.155 152.109 278.859 152.664C279.584 153.219 280.608 153.496 281.931 153.496Z" fill="#4A6DA7"/>
<path d="M152.246 234.512C149.771 234.512 147.809 233.925 146.358 232.752C144.907 231.579 144.097 230 143.926 228.016L147.478 227.792C147.627 228.965 148.118 229.851 148.95 230.448C149.803 231.045 150.902 231.344 152.246 231.344C153.739 231.344 154.913 230.928 155.766 230.096C156.641 229.264 157.078 228.101 157.078 226.608C157.078 225.136 156.641 223.973 155.766 223.12C154.913 222.245 153.729 221.808 152.214 221.808C151.19 221.808 150.283 222.032 149.494 222.48C148.726 222.907 148.171 223.483 147.83 224.208H144.246L145.782 211.28H159.094V214.448H148.854L147.894 222.224L147.35 221.744C147.862 220.827 148.609 220.123 149.59 219.632C150.593 219.12 151.734 218.864 153.014 218.864C154.507 218.864 155.83 219.195 156.982 219.856C158.155 220.517 159.062 221.445 159.702 222.64C160.342 223.813 160.662 225.136 160.662 226.608C160.662 228.165 160.31 229.541 159.606 230.736C158.902 231.931 157.91 232.859 156.63 233.52C155.371 234.181 153.91 234.512 152.246 234.512ZM170.826 234.512C168.159 234.512 166.101 233.627 164.65 231.856C163.221 230.085 162.506 227.557 162.506 224.272C162.506 221.627 162.815 219.301 163.434 217.296C164.053 215.291 165.045 213.701 166.41 212.528C167.775 211.355 169.525 210.768 171.658 210.768C173.663 210.768 175.263 211.259 176.458 212.24C177.674 213.221 178.517 214.587 178.986 216.336L175.562 216.624C175.285 215.728 174.837 215.056 174.218 214.608C173.621 214.139 172.767 213.904 171.658 213.904C169.866 213.904 168.479 214.661 167.498 216.176C166.517 217.691 165.994 219.963 165.93 222.992L165.322 222.864C165.685 221.712 166.421 220.752 167.53 219.984C168.639 219.216 169.962 218.832 171.498 218.832C172.991 218.832 174.314 219.152 175.466 219.792C176.618 220.411 177.503 221.307 178.122 222.48C178.762 223.632 179.082 224.965 179.082 226.48C179.082 228.123 178.73 229.552 178.026 230.768C177.322 231.984 176.341 232.912 175.082 233.552C173.845 234.192 172.426 234.512 170.826 234.512ZM170.858 231.44C172.245 231.44 173.365 231.003 174.218 230.128C175.093 229.232 175.53 228.016 175.53 226.48C175.53 225.051 175.114 223.909 174.282 223.056C173.471 222.181 172.405 221.744 171.082 221.744C170.122 221.744 169.269 221.936 168.522 222.32C167.775 222.704 167.189 223.259 166.762 223.984C166.335 224.709 166.122 225.541 166.122 226.48C166.122 227.44 166.314 228.293 166.698 229.04C167.082 229.787 167.637 230.373 168.362 230.8C169.087 231.227 169.919 231.44 170.858 231.44Z" fill="url(#paint9_linear_1_37)"/>
<path d="M262.324 234.512C259.85 234.512 257.887 233.925 256.436 232.752C254.986 231.579 254.175 230 254.004 228.016L257.556 227.792C257.706 228.965 258.196 229.851 259.028 230.448C259.882 231.045 260.98 231.344 262.324 231.344C263.818 231.344 264.991 230.928 265.844 230.096C266.719 229.264 267.156 228.101 267.156 226.608C267.156 225.136 266.719 223.973 265.844 223.12C264.991 222.245 263.807 221.808 262.292 221.808C261.268 221.808 260.362 222.032 259.572 222.48C258.804 222.907 258.25 223.483 257.908 224.208H254.324L255.86 211.28H269.172V214.448H258.932L257.972 222.224L257.428 221.744C257.94 220.827 258.687 220.123 259.668 219.632C260.671 219.12 261.812 218.864 263.092 218.864C264.586 218.864 265.908 219.195 267.06 219.856C268.234 220.517 269.14 221.445 269.78 222.64C270.42 223.813 270.74 225.136 270.74 226.608C270.74 228.165 270.388 229.541 269.684 230.736C268.98 231.931 267.988 232.859 266.708 233.52C265.45 234.181 263.988 234.512 262.324 234.512ZM272.584 234C272.584 232.229 272.84 230.683 273.352 229.36C273.886 228.037 274.771 226.811 276.008 225.68C277.246 224.528 278.942 223.376 281.096 222.224C282.206 221.648 283.059 221.136 283.656 220.688C284.254 220.24 284.691 219.781 284.968 219.312C285.246 218.821 285.384 218.224 285.384 217.52C285.384 216.432 285.032 215.568 284.328 214.928C283.624 214.267 282.611 213.936 281.288 213.936C279.859 213.936 278.718 214.32 277.864 215.088C277.011 215.856 276.478 216.976 276.264 218.448L272.68 218.224C272.936 215.899 273.811 214.075 275.304 212.752C276.798 211.429 278.792 210.768 281.288 210.768C282.888 210.768 284.264 211.056 285.416 211.632C286.568 212.187 287.443 212.965 288.04 213.968C288.659 214.971 288.968 216.133 288.968 217.456C288.968 218.629 288.776 219.621 288.392 220.432C288.008 221.243 287.379 222.011 286.504 222.736C285.651 223.44 284.424 224.208 282.824 225.04C280.926 226.043 279.454 227.056 278.408 228.08C277.384 229.104 276.84 230.021 276.776 230.832H288.968V234H272.584Z" fill="url(#paint10_linear_1_37)"/>
<path d="M151.149 280.808H146.349V278.024H148.301C149.175 278.024 149.869 277.917 150.381 277.704C150.914 277.469 151.298 277.085 151.533 276.552C151.767 275.997 151.885 275.24 151.885 274.28H154.605V297H151.149V280.808ZM166.997 297.512C165.141 297.512 163.52 297.032 162.133 296.072C160.747 295.112 159.669 293.747 158.901 291.976C158.155 290.184 157.781 288.083 157.781 285.672C157.781 283.261 158.155 281.16 158.901 279.368C159.669 277.576 160.747 276.2 162.133 275.24C163.52 274.259 165.141 273.768 166.997 273.768C168.896 273.768 170.539 274.248 171.925 275.208C173.312 276.168 174.379 277.544 175.125 279.336C175.872 281.128 176.245 283.24 176.245 285.672C176.245 288.083 175.872 290.184 175.125 291.976C174.379 293.747 173.312 295.112 171.925 296.072C170.539 297.032 168.896 297.512 166.997 297.512ZM166.997 294.344C168.213 294.344 169.237 294.013 170.069 293.352C170.923 292.691 171.563 291.709 171.989 290.408C172.437 289.107 172.661 287.528 172.661 285.672C172.661 283.795 172.437 282.205 171.989 280.904C171.563 279.603 170.923 278.621 170.069 277.96C169.237 277.277 168.213 276.936 166.997 276.936C165.803 276.936 164.789 277.277 163.957 277.96C163.125 278.621 162.485 279.603 162.037 280.904C161.589 282.205 161.365 283.795 161.365 285.672C161.365 287.528 161.589 289.107 162.037 290.408C162.485 291.709 163.125 292.691 163.957 293.352C164.789 294.013 165.803 294.344 166.997 294.344Z" fill="#4A6DA7"/>
<path d="M262.274 280.808H257.474V278.024H259.426C260.3 278.024 260.994 277.917 261.506 277.704C262.039 277.469 262.423 277.085 262.658 276.552C262.892 275.997 263.01 275.24 263.01 274.28H265.73V297H262.274V280.808ZM277.482 297.512C275.008 297.512 273.045 296.925 271.594 295.752C270.144 294.579 269.333 293 269.162 291.016L272.714 290.792C272.864 291.965 273.354 292.851 274.186 293.448C275.04 294.045 276.138 294.344 277.482 294.344C278.976 294.344 280.149 293.928 281.002 293.096C281.877 292.264 282.314 291.101 282.314 289.608C282.314 288.136 281.877 286.973 281.002 286.12C280.149 285.245 278.965 284.808 277.45 284.808C276.426 284.808 275.52 285.032 274.73 285.48C273.962 285.907 273.408 286.483 273.066 287.208H269.482L271.018 274.28H284.33V277.448H274.09L273.13 285.224L272.586 284.744C273.098 283.827 273.845 283.123 274.826 282.632C275.829 282.12 276.97 281.864 278.25 281.864C279.744 281.864 281.066 282.195 282.218 282.856C283.392 283.517 284.298 284.445 284.938 285.64C285.578 286.813 285.898 288.136 285.898 289.608C285.898 291.165 285.546 292.541 284.842 293.736C284.138 294.931 283.146 295.859 281.866 296.52C280.608 297.181 279.146 297.512 277.482 297.512Z" fill="url(#paint11_linear_1_37)"/>
</g>
<defs>
<linearGradient id="paint0_linear_1_37" x1="124" y1="33.5" x2="200" y2="33.5" gradientUnits="userSpaceOnUse">
<stop stop-color="#D9D9D9"/>
<stop offset="1" stop-color="#737373"/>
</linearGradient>
<linearGradient id="paint1_linear_1_37" x1="234" y1="33.5" x2="310" y2="33.5" gradientUnits="userSpaceOnUse">
<stop stop-color="#D9D9D9"/>
<stop offset="1" stop-color="#737373"/>
</linearGradient>
<linearGradient id="paint2_linear_1_37" x1="344" y1="33.5" x2="420" y2="33.5" gradientUnits="userSpaceOnUse">
<stop stop-color="#D9D9D9"/>
<stop offset="1" stop-color="#737373"/>
</linearGradient>
<linearGradient id="paint3_linear_1_37" x1="14" y1="93.5" x2="90" y2="93.5" gradientUnits="userSpaceOnUse">
<stop stop-color="#D9D9D9"/>
<stop offset="1" stop-color="#737373"/>
</linearGradient>
<linearGradient id="paint4_linear_1_37" x1="14" y1="157.5" x2="90" y2="157.5" gradientUnits="userSpaceOnUse">
<stop stop-color="#D9D9D9"/>
<stop offset="1" stop-color="#737373"/>
</linearGradient>
<linearGradient id="paint5_linear_1_37" x1="14" y1="221.5" x2="90" y2="221.5" gradientUnits="userSpaceOnUse">
<stop stop-color="#D9D9D9"/>
<stop offset="1" stop-color="#737373"/>
</linearGradient>
<linearGradient id="paint6_linear_1_37" x1="146.296" y1="77" x2="177.704" y2="109" gradientUnits="userSpaceOnUse">
<stop stop-color="#282828"/>
<stop offset="1" stop-color="#8E8E8E"/>
</linearGradient>
<linearGradient id="paint7_linear_1_37" x1="259.437" y1="77" x2="290.205" y2="102.078" gradientUnits="userSpaceOnUse">
<stop stop-color="#282828"/>
<stop offset="1" stop-color="#8E8E8E"/>
</linearGradient>
<linearGradient id="paint8_linear_1_37" x1="149.437" y1="140" x2="180.205" y2="165.078" gradientUnits="userSpaceOnUse">
<stop stop-color="#282828"/>
<stop offset="1" stop-color="#8E8E8E"/>
</linearGradient>
<linearGradient id="paint9_linear_1_37" x1="146.189" y1="207" x2="177.601" y2="238.205" gradientUnits="userSpaceOnUse">
<stop stop-color="#282828"/>
<stop offset="1" stop-color="#8E8E8E"/>
</linearGradient>
<linearGradient id="paint10_linear_1_37" x1="256.189" y1="207" x2="287.601" y2="238.205" gradientUnits="userSpaceOnUse">
<stop stop-color="#282828"/>
<stop offset="1" stop-color="#8E8E8E"/>
</linearGradient>
<linearGradient id="paint11_linear_1_37" x1="259.437" y1="270" x2="290.205" y2="295.078" gradientUnits="userSpaceOnUse">
<stop stop-color="#282828"/>
<stop offset="1" stop-color="#8E8E8E"/>
</linearGradient>
<clipPath id="clip0_1_37">
<rect width="390" height="328" fill="white"/>
</clipPath>
</defs>
</svg>
